C:\GBW_MyPrograms\PredSimResults\Vitruvian_man\IG_v18ms_QR.mot
version=1
nRows=8
nColumns=35
inDegrees=yes
endheader
                time	         pelvis_tilt	           pelvis_tx	           pelvis_ty	       hip_flexion_r	        knee_angle_r	       ankle_angle_r	         mtp_angle_r	       hip_flexion_l	        knee_angle_l	       ankle_angle_l	         mtp_angle_l	    lumbar_extension	          arm_flex_r	          arm_flex_l	        elbow_flex_r	        elbow_flex_l	hamstrings_r/activation	bifemsh_r/activation	glut_max_r/activation	iliopsoas_r/activation	rect_fem_r/activation	  vasti_r/activation	gastroc_r/activation	 soleus_r/activation	tib_ant_r/activation	hamstrings_l/activation	bifemsh_l/activation	glut_max_l/activation	iliopsoas_l/activation	rect_fem_l/activation	  vasti_l/activation	gastroc_l/activation	 soleus_l/activation	tib_ant_l/activation	
          0.83734139	         -9.69477315	          1.50721449	          0.97205999	          3.15107174	         -5.32997323	         11.29783351	          4.09606035	         34.18055901	        -16.93579753	        -10.46765820	          0.68421299	        -13.06351867	        -14.87248792	        -14.87248777	         19.57677712	         19.57677746	          0.14394600	          0.38567211	          0.28207710	          0.28306526	          0.05229345	          0.05001288	          0.46121210	          0.45075153	          0.19498502	          0.60987614	          0.24619930	          0.52283644	          0.12977461	          0.08626993	          0.05000222	          0.07021602	          0.18031207	          0.21955827	
          0.85408821	        -10.76775955	          1.54534908	          0.96412744	          3.03475108	         -7.56658894	         12.64322298	          7.21330697	         35.44983140	        -21.86875711	         -5.79802635	          1.19233666	        -10.79361958	        -20.01249369	        -20.01249354	         15.81540457	         15.81540481	          0.14756818	          0.45819446	          0.23755438	          0.26208443	          0.05000397	          0.05000854	          0.48248581	          0.51750022	          0.15243803	          0.47679625	          0.19247778	          0.77454294	          0.10145719	          0.06744606	          0.05003129	          0.05489556	          0.42482144	          0.17165160	
          0.87083504	        -11.81505793	          1.58418647	          0.96064082	          2.83612806	         -9.55910763	         11.89091769	         10.46827642	         36.34569132	        -26.01451827	         -3.03644701	          2.96441607	         -8.21795158	        -25.16903793	        -25.16903778	         12.41009624	         12.41009640	          0.17011712	          0.55930098	          0.18572822	          0.30041768	          0.05000455	          0.05000398	          0.45278770	          0.43473383	          0.11917508	          0.37275593	          0.15047909	          0.89286879	          0.07931894	          0.05273037	          0.30913129	          0.05000679	          0.60274860	          0.13421150	
          0.88758187	        -12.73661855	          1.62379773	          0.96176047	          2.77337252	        -11.84807127	          9.18505436	         13.67712863	         35.95276914	        -28.03659327	         -1.86599226	          5.46013503	         -5.46053216	        -30.34776675	        -30.34776660	          9.54767076	          9.54767085	          0.18170847	          0.51557597	          0.21902607	          0.29496376	          0.05000292	          0.05000294	          0.35399318	          0.33987154	          0.09317031	          0.29144502	          0.11764488	          0.69803836	          0.06201150	          0.05000320	          0.45263966	          0.16225480	          0.72659134	          0.10492742	
          0.90432870	        -13.39920970	          1.66374753	          0.96713198	          2.94585682	        -14.72464591	          4.72239303	         16.42580861	         34.11605048	        -27.90241108	         -1.90361791	          8.36893477	         -2.78918095	        -35.51994925	        -35.51994910	          7.61763846	          7.61763850	          0.15610682	          0.40309007	          0.17123795	          0.33976132	          0.05000211	          0.05000178	          0.27674998	          0.26570877	          0.07284000	          0.25447089	          0.09197540	          0.54572061	          0.05000138	          0.05000356	          0.35387143	          0.25276975	          0.76888556	          0.08203215	
          0.92107552	        -13.77986238	          1.70312323	          0.97562193	          3.47735876	        -18.30931264	         -0.91986473	         17.88290039	         31.45671524	        -26.60142586	         -3.08548808	         11.36841982	         -0.40459150	        -40.43809707	        -40.43809694	          6.52639616	          6.52639618	          0.12204418	          0.31513620	          0.13387414	          0.38079941	          0.05000565	          0.05000106	          0.21636166	          0.20772895	          0.05694612	          0.20978753	          0.07190761	          0.42663985	          0.05000175	          0.05000444	          0.27665408	          0.32342649	          0.73553152	          0.06413259	
          0.93782235	        -13.85050055	          1.74120879	          0.98629267	          4.34278160	        -22.55246389	         -6.78556410	         16.85798126	         28.47933615	        -24.95553217	         -5.37596237	         14.18330812	          1.51997589	        -44.42016084	        -44.42016075	          5.00301523	          5.00301524	          0.09541373	          0.24637272	          0.10466369	          0.37038730	          0.31534759	          0.05000247	          0.16915069	          0.16240089	          0.05000065	          0.17984323	          0.05622079	          0.33354360	          0.05000172	          0.05000432	          0.21628607	          0.38986656	          0.60196766	          0.05013897	
          0.95456918	        -13.63171698	          1.77776044	          0.99825484	          5.28170573	        -26.66357053	        -12.88586523	         14.12158735	         25.40015874	        -23.31393667	         -8.37692641	         16.42826591	          2.91246186	        -47.33862593	        -47.33862586	          3.18878635	          3.18878635	          0.07459442	          0.19261438	          0.08182737	          0.37316396	          0.51553520	          0.05001218	          0.13224219	          0.12696394	          0.19204738	          0.14319608	          0.17651692	          0.26076182	          0.05000223	          0.05000432	          0.16909084	          0.35832993	          0.47061399	          0.05000119	
